<svg width="45" height="44" viewBox="0 0 45 44" fill="none" xmlns="http://www.w3.org/2000/svg">
<rect width="45" height="44" rx="10" fill="#1BFF07"/>
<path d="M27.8545 8.90039C28.5133 8.90369 29.1445 9.16694 29.6104 9.63281C30.0759 10.0986 30.3394 10.7291 30.3428 11.3877V32.4092C30.3394 33.0677 30.0759 33.6983 29.6104 34.1641C29.1445 34.6299 28.5133 34.8932 27.8545 34.8965H16.3877C15.729 34.8931 15.0986 34.6299 14.6328 34.1641C14.167 33.6983 13.9038 33.0679 13.9004 32.4092V11.3877C13.9038 10.729 14.167 10.0986 14.6328 9.63281C15.0986 9.16701 15.729 8.90377 16.3877 8.90039H27.8545ZM15.0557 32.4082C15.0557 32.7618 15.1963 33.1006 15.4463 33.3506C15.6963 33.6006 16.0351 33.7412 16.3887 33.7412H27.8535C28.2071 33.7412 28.5469 33.6006 28.7969 33.3506C29.0467 33.1006 29.1875 32.7616 29.1875 32.4082V31.0752H15.0557V32.4082ZM15.0557 29.9199H29.1875V13.877H15.0557V29.9199ZM16.3887 10.0557C16.0351 10.0557 15.6963 10.1963 15.4463 10.4463C15.1963 10.6963 15.0557 11.0351 15.0557 11.3887V12.7217H29.1875V11.3887C29.1875 11.0353 29.0467 10.6963 28.7969 10.4463C28.5469 10.1963 28.2071 10.0557 27.8535 10.0557H16.3887Z" fill="white" stroke="white" stroke-width="0.2"/>
</svg>
